<svg xmlns="http://www.w3.org/2000/svg" width="21.296" height="21.296" viewBox="0 0 21.296 21.296">
  <path id="Icon_material-language" data-name="Icon material-language" d="M13.637,3A10.648,10.648,0,1,0,24.3,13.648,10.643,10.643,0,0,0,13.637,3Zm7.379,6.389H17.875A16.663,16.663,0,0,0,16.406,5.6,8.55,8.55,0,0,1,21.016,9.389ZM13.648,5.172a15,15,0,0,1,2.034,4.217H11.614A15,15,0,0,1,13.648,5.172ZM5.406,15.778a8.329,8.329,0,0,1,0-4.259h3.6a17.585,17.585,0,0,0-.149,2.13,17.585,17.585,0,0,0,.149,2.13Zm.873,2.13H9.421A16.663,16.663,0,0,0,10.89,21.7,8.5,8.5,0,0,1,6.28,17.907ZM9.421,9.389H6.28A8.5,8.5,0,0,1,10.89,5.6,16.663,16.663,0,0,0,9.421,9.389Zm4.227,12.735a15,15,0,0,1-2.034-4.217h4.068A15,15,0,0,1,13.648,22.124Zm2.492-6.346H11.156a15.666,15.666,0,0,1-.17-2.13,15.53,15.53,0,0,1,.17-2.13H16.14a15.53,15.53,0,0,1,.17,2.13A15.666,15.666,0,0,1,16.14,15.778Zm.266,5.92a16.663,16.663,0,0,0,1.469-3.791h3.141A8.55,8.55,0,0,1,16.406,21.7Zm1.885-5.92a17.585,17.585,0,0,0,.149-2.13,17.585,17.585,0,0,0-.149-2.13h3.6a8.329,8.329,0,0,1,0,4.259Z" transform="translate(-3 -3)" fill="#83cdeb"/>
</svg>
