<svg xmlns="http://www.w3.org/2000/svg" width="21.21" height="20.21" viewBox="0 0 21.21 20.21">
  <path id="Icon_awesome-certificate" data-name="Icon awesome-certificate" d="M19,10.1l1.9-1.776a.925.925,0,0,0-.442-1.592l-2.6-.631L18.6,3.654A.981.981,0,0,0,17.37,2.483l-2.568.7L14.139.706a1.012,1.012,0,0,0-1.67-.421L10.605,2.115,8.741.285a1.012,1.012,0,0,0-1.67.421L6.409,3.18l-2.568-.7A.981.981,0,0,0,2.612,3.654L3.343,6.1l-2.6.631A.925.925,0,0,0,.306,8.325l1.9,1.776-1.9,1.776a.925.925,0,0,0,.442,1.592l2.6.631L2.612,16.55A.981.981,0,0,0,3.84,17.721l2.568-.7L7.071,19.5a1,1,0,0,0,1.67.421L10.605,18.1l1.864,1.816a1.007,1.007,0,0,0,1.67-.421l.662-2.474,2.568.7A.981.981,0,0,0,18.6,16.55L17.867,14.1l2.6-.631a.925.925,0,0,0,.442-1.592L19,10.1Z" transform="translate(0 0)" fill="#fff"/>
</svg>
