<svg id="noun_task_2145587" xmlns="http://www.w3.org/2000/svg" width="21.843" height="23.818" viewBox="0 0 21.843 23.818">
  <path id="Path_41909" data-name="Path 41909" d="M43.576,73.546l1.768-.848a2.349,2.349,0,0,0,.791-.619L43.87,70.2a2.348,2.348,0,0,0-.461.893l-.5,1.895a.132.132,0,0,0,.042.136l.488.4A.132.132,0,0,0,43.576,73.546Z" transform="translate(-33.864 -52.948)" fill="#fff"/>
  <path id="Path_41910" data-name="Path 41910" d="M80.924,26.782l2.264,1.876.1-.126a1.471,1.471,0,1,0-2.264-1.876Z" transform="translate(-61.826 -20.5)" fill="#fff"/>
  <path id="Path_41911" data-name="Path 41911" d="M41.643,83.41l.183-.221-.353-.292-.183.22a.229.229,0,1,0,.353.292Z" transform="translate(-32.637 -62.283)" fill="#fff"/>
  <rect id="Rectangle_2965" data-name="Rectangle 2965" width="12.673" height="2.941" transform="matrix(0.638, -0.77, 0.77, 0.638, 10.509, 16.648)" fill="#fff"/>
  <path id="Path_41912" data-name="Path 41912" d="M20.472,47.957a.794.794,0,1,0,.794.794.794.794,0,0,0-.794-.794Z" transform="translate(-16.788 -36.589)" fill="#fff"/>
  <path id="Path_41913" data-name="Path 41913" d="M31.206,48.961a.529.529,0,1,0,0,1.059h5.737l.765-.924a.532.532,0,0,0-.355-.135Z" transform="translate(-24.876 -37.327)" fill="#fff"/>
  <path id="Path_41914" data-name="Path 41914" d="M20.472,34.277a.794.794,0,1,0,.794.794.794.794,0,0,0-.794-.794Z" transform="translate(-16.788 -26.529)" fill="#fff"/>
  <path id="Path_41915" data-name="Path 41915" d="M37.884,35.806a.529.529,0,0,0-.529-.529H31.207a.529.529,0,1,0,0,1.059h6.147a.529.529,0,0,0,.529-.529Z" transform="translate(-24.877 -27.265)" fill="#fff"/>
  <path id="Path_41916" data-name="Path 41916" d="M20.472,61.637a.794.794,0,1,0,.794.794.794.794,0,0,0-.794-.794Z" transform="translate(-16.788 -46.648)" fill="#fff"/>
  <path id="Path_41917" data-name="Path 41917" d="M34.821,62.641H31.206a.529.529,0,1,0,0,1.059h2.739Z" transform="translate(-24.876 -47.387)" fill="#fff"/>
  <path id="Path_41918" data-name="Path 41918" d="M20.472,75.316a.794.794,0,1,0,.794.794.794.794,0,0,0-.794-.794Z" transform="translate(-16.788 -56.708)" fill="#fff"/>
  <path id="Path_41919" data-name="Path 41919" d="M30.833,76.474a.53.53,0,0,0,.373.905H32.6a1.4,1.4,0,0,1,.04-.23l.22-.828H31.206A.526.526,0,0,0,30.833,76.474Z" transform="translate(-24.876 -57.446)" fill="#fff"/>
  <path id="Path_41920" data-name="Path 41920" d="M61.23,21.491V18.763a1.88,1.88,0,0,0-1.882-1.882H58.136A3.3,3.3,0,0,1,58.75,18.2h.6a.557.557,0,0,1,.558.558v4.324Z" transform="translate(-45.068 -13.737)" fill="#fff"/>
  <path id="Path_41921" data-name="Path 41921" d="M10.639,37.555h12.4a1.88,1.88,0,0,0,1.882-1.882V30.248l-1.323,1.6v3.829a.558.558,0,0,1-.558.558h-12.4a.558.558,0,0,1-.558-.558V18.763a.557.557,0,0,1,.558-.558h.6a3.3,3.3,0,0,1,.614-1.323H10.639a1.88,1.88,0,0,0-1.882,1.882v16.91a1.88,1.88,0,0,0,1.882,1.882Z" transform="translate(-8.757 -13.737)" fill="#fff"/>
  <path id="Path_41922" data-name="Path 41922" d="M31.537,10.244a2.183,2.183,0,0,0-1.316-2.012A1.386,1.386,0,0,1,29.434,7.1q0-.045-.008-.091a2.262,2.262,0,0,0-4.51.257.929.929,0,0,1-.576.877,2.231,2.231,0,0,0-1.521,2.105.56.56,0,0,0,.56.56h7.6a.56.56,0,0,0,.56-.56ZM27.178,8.2a.939.939,0,1,1,.939-.939A.939.939,0,0,1,27.178,8.2Z" transform="translate(-19.098 -5)" fill="#fff"/>
</svg>
