<svg xmlns="http://www.w3.org/2000/svg" width="22.766" height="25.628" viewBox="0 0 22.766 25.628">
  <path id="Shape_8_copy" data-name="Shape 8 copy" d="M278.5,15.806c-.9,0-.979,0-.9.923l.46,5.581c.08.923,0,.923.9.923s.82,0,.9-.923l.46-5.581c.08-.923,0-.923-.9-.923Zm.46,9.069a1.549,1.549,0,0,0-1.579,1.6,1.571,1.571,0,0,0,1.579,1.642,1.556,1.556,0,0,0,1.559-1.642A1.533,1.533,0,0,0,278.957,24.875Zm-10.753,3.9c1.519-.759,2.418-2.811,2.638-6.607.26-4.432,1.179-8.474,6.136-9.3.12-1.539,1.059-2.2,2-2.2s1.839.7,1.959,2.2c4.937.821,5.856,4.822,6.136,9.3.22,3.55,1.019,5.827,2.638,6.628.6.308.62.205.62,1.354,0,1.047,0,1.047-1.019,1.047H268.584c-1.019,0-1.019,0-1.019-1.047S267.545,29.1,268.2,28.774Zm10.773,7.53a2.909,2.909,0,0,1-3.1-3.057h6.156A2.892,2.892,0,0,1,278.978,36.3Z" transform="translate(-267.565 -10.676)" fill="#BF9F35"/>
</svg>
