<svg xmlns="http://www.w3.org/2000/svg" width="62.667" height="62.667" viewBox="0 0 62.667 62.667">
  <g id="noun_Planning_2520360" transform="translate(-6 -6)">
    <g id="Group_13287" data-name="Group 13287" transform="translate(6 6)">
      <path id="Path_41923" data-name="Path 41923" d="M49.136,6H11.222A5.221,5.221,0,0,0,6,11.222V63.444a5.221,5.221,0,0,0,5.222,5.222H49.136a5.221,5.221,0,0,0,5.222-5.222V11.222A5.221,5.221,0,0,0,49.136,6ZM16.781,31.97a4.562,4.562,0,1,1,4.562,4.563A4.567,4.567,0,0,1,16.781,31.97ZM39.8,57.39a1.305,1.305,0,1,1-1.846,1.846L36.1,57.381l-1.854,1.854A1.305,1.305,0,1,1,32.4,57.39l1.854-1.854L32.4,53.681a1.305,1.305,0,1,1,1.846-1.846L36.1,53.689l1.854-1.854A1.305,1.305,0,1,1,39.8,53.681l-1.854,1.854Zm.78-20.08-4.315,4.483a1.306,1.306,0,0,1-1.882-1.81l2.248-2.336h-.389c-7.5,0-13.6,8.589-13.6,19.149a1.306,1.306,0,1,1-2.611,0c0-12,7.272-21.76,16.21-21.76h.2l-2.21-2.12a1.306,1.306,0,1,1,1.808-1.884l4.5,4.317a1.263,1.263,0,0,1,.038,1.962Zm4.648-14.337H15.139a1.306,1.306,0,1,1,0-2.611H45.225a1.306,1.306,0,1,1,0,2.611Zm0-6.528H15.139a1.306,1.306,0,1,1,0-2.611H45.225a1.306,1.306,0,1,1,0,2.611Z" transform="translate(-6 -6)" fill="#fff"/>
      <path id="Path_41924" data-name="Path 41924" d="M53.205,17.96H48.649a3.507,3.507,0,0,0-3.5,3.5v2.294H56.7V21.459A3.5,3.5,0,0,0,53.205,17.96Z" transform="translate(5.962 -2.346)" fill="#fff"/>
      <path id="Path_41925" data-name="Path 41925" d="M49.626,55.609a1.312,1.312,0,0,0,2.4,0l4.126-9.439H45.5Z" transform="translate(6.069 6.274)" fill="#fff"/>
      <rect id="Rectangle_2966" data-name="Rectangle 2966" width="11.554" height="25.811" transform="translate(51.112 24.022)" fill="#fff"/>
    </g>
  </g>
</svg>
