<svg id="noun_e-book_3410217" xmlns="http://www.w3.org/2000/svg" width="17.816" height="16.651" viewBox="0 0 17.816 16.651">
  <g id="Group_48" data-name="Group 48">
    <g id="Group_46" data-name="Group 46" transform="translate(3.483 12.934)">
      <path id="Path_60" data-name="Path 60" d="M226.816,370.324h-3.274v2.683h3.274Zm-1.637,2.419a1.077,1.077,0,1,1,1.077-1.077A1.079,1.079,0,0,1,225.179,372.743Z" transform="translate(-219.425 -370.324)" fill="#fff"/>
      <circle id="Ellipse_2" data-name="Ellipse 2" cx="0.463" cy="0.463" r="0.463" transform="translate(5.291 0.879)" fill="#fff"/>
      <path id="Path_61" data-name="Path 61" d="M131.8,426.486h-2.372v.726a.307.307,0,0,1-.307.307h-3.888a.307.307,0,0,1-.307-.307v-.726h-2.372l-1.13,1.453h11.507Z" transform="translate(-121.421 -424.222)" fill="#fff"/>
    </g>
    <path id="Path_62" data-name="Path 62" d="M50.9,135.332v4.308a.308.308,0,0,1-.1.226.3.3,0,0,1-.234.08c-.045,0-4.629-.357-6.395,1.747a.3.3,0,0,1-.122.085s0,0-.008.006a.308.308,0,0,1-.1.018.3.3,0,0,1-.175-.064c-.007,0-.016,0-.022-.008a.277.277,0,0,1-.018-.023c-.006-.006-.014-.008-.019-.015-1.765-2.1-6.348-1.748-6.395-1.747a.3.3,0,0,1-.234-.08.308.308,0,0,1-.1-.226v-4.308H35.026v8.76H52.842v-8.76Z" transform="translate(-35.026 -131.871)" fill="#fff"/>
    <g id="Group_47" data-name="Group 47" transform="translate(2.56)">
      <path id="Path_63" data-name="Path 63" d="M263.618,50.981V58.4c1.848-1.494,5.006-1.505,6.041-1.463V49.58A7.757,7.757,0,0,0,263.618,50.981Zm5.371,5.24a6.639,6.639,0,0,0-4.567,1.01.307.307,0,1,1-.37-.49,7.147,7.147,0,0,1,5.041-1.125.307.307,0,0,1-.1.605Zm0-1.737a6.645,6.645,0,0,0-4.567,1.01.307.307,0,1,1-.37-.49,7.142,7.142,0,0,1,5.041-1.125.307.307,0,0,1-.1.605Zm0-1.738a6.639,6.639,0,0,0-4.567,1.01.307.307,0,1,1-.37-.49,7.147,7.147,0,0,1,5.041-1.125.307.307,0,0,1-.1.605Zm0-1.737a6.643,6.643,0,0,0-4.567,1.01.307.307,0,1,1-.37-.49,7.14,7.14,0,0,1,5.041-1.125.307.307,0,0,1-.1.605Z" transform="translate(-256.963 -49.48)" fill="#fff"/>
      <path id="Path_64" data-name="Path 64" d="M98.526,49.593v7.362c.147-.006.336-.011.558-.011,1.345,0,3.9.185,5.483,1.465V50.995A7.8,7.8,0,0,0,98.526,49.593Zm5.548,7.591a.307.307,0,0,1-.43.06,6.636,6.636,0,0,0-4.568-1.01.307.307,0,0,1-.1-.605,7.146,7.146,0,0,1,5.041,1.125A.307.307,0,0,1,104.074,57.184Zm0-1.737a.307.307,0,0,1-.43.06,6.615,6.615,0,0,0-4.567-1.01.307.307,0,1,1-.1-.605,7.144,7.144,0,0,1,5.041,1.125A.307.307,0,0,1,104.074,55.447Zm0-1.738a.307.307,0,0,1-.43.06,6.636,6.636,0,0,0-4.568-1.01.307.307,0,0,1-.1-.605,7.146,7.146,0,0,1,5.041,1.125A.307.307,0,0,1,104.074,53.709Zm-.06-2.167a.307.307,0,1,1-.37.49,6.617,6.617,0,0,0-4.567-1.01.307.307,0,1,1-.1-.605A7.146,7.146,0,0,1,104.013,51.542Z" transform="translate(-98.526 -49.493)" fill="#fff"/>
    </g>
  </g>
</svg>
