<svg xmlns="http://www.w3.org/2000/svg" width="103.71" height="113.84" viewBox="0 0 103.71 113.84">
  <g id="noun_lesson_1766585" transform="translate(24 -11)">
    <g id="Group_13297" data-name="Group 13297" transform="translate(-24 11)">
      <path id="Path_41941" data-name="Path 41941" d="M55.016,5.743V1H50.694V5.743H1v4.743H5.321V72.15H1v4.743H43.07L29.088,111.973v2.867h4.321v-1.876L47.786,76.893h2.908V114.84h4.321V76.893h2.908L72.3,112.964v1.876h4.321v-2.867L62.641,76.893h42.07V72.15h-4.321V10.487h4.321V5.743H55.016ZM96.068,72.15H9.643V10.487H96.068Z" transform="translate(-1 -1)"/>
      <path id="Path_41942" data-name="Path 41942" d="M18.2,32.4A10.212,10.212,0,0,0,28.4,22.2V20.925H19.475V12H18.2a10.2,10.2,0,0,0,0,20.4ZM16.925,14.656v8.819h8.819a7.651,7.651,0,1,1-8.819-8.819Z" transform="translate(0.925 20.12)"/>
      <path id="Path_41943" data-name="Path 41943" d="M30.475,18.2A10.212,10.212,0,0,0,20.275,8H19V19.475H30.475ZM21.55,16.925V10.656a7.67,7.67,0,0,1,6.269,6.269Z" transform="translate(23.57 0.925)"/>
      <rect id="Rectangle_2969" data-name="Rectangle 2969" width="13" height="3" transform="translate(72 21)"/>
      <rect id="Rectangle_2970" data-name="Rectangle 2970" width="13" height="2" transform="translate(72 34)"/>
      <rect id="Rectangle_2971" data-name="Rectangle 2971" width="13" height="3" transform="translate(72 46)"/>
    </g>
  </g>
</svg>
