<svg xmlns="http://www.w3.org/2000/svg" xmlns:xlink="http://www.w3.org/1999/xlink" width="42.185" height="61.933" viewBox="0 0 42.185 61.933">
  <defs>
    <linearGradient id="linear-gradient" x1="0.986" y1="0.5" x2="0.049" y2="1" gradientUnits="objectBoundingBox">
      <stop offset="0" stop-color="#83cdeb"/>
      <stop offset="1" stop-color="#5f534c"/>
    </linearGradient>
  </defs>
  <g id="noun_customer_service_848438" data-name="noun_customer service_848438" transform="translate(-19.348 -5)">
    <g id="Group_13286" data-name="Group 13286" transform="translate(19.348 5)">
      <path id="Path_41905" data-name="Path 41905" d="M58.528,93.043H26.217a.674.674,0,1,0,0,1.347H58.527a.674.674,0,0,0,0-1.347Z" transform="translate(-21.28 -32.458)" fill="url(#linear-gradient)"/>
      <path id="Path_41906" data-name="Path 41906" d="M59.706,43.915a4.668,4.668,0,0,0-.226-1.087c-.758-2.219-5.709-3.836-7.96-4.84A19.554,19.554,0,0,1,48.508,36.7c-.665-.507-.765-1.6-1.614-2.367-.266-.242-.932-.063-1.24-.278a2.668,2.668,0,0,1-1.031.209h-1.9a2.694,2.694,0,1,1,0-5.389h1.9a2.688,2.688,0,0,1,1.686.595,12.507,12.507,0,0,0,1.4-.275c1.343-1.2,1.827-4.449.8-4.543.406-2.212.8-5.226.224-7.25-.685-2.869-4.14-5.05-8.3-5.05-4.349,0-7.927,2.381-8.378,5.44a19.672,19.672,0,0,0,.322,6.86c-1.184.107-.33,4.424,1.506,4.948.236,1.074,0,.946.322,1.829.317.864,1.3,1.442,1.184,2.366-.079.608-1.062.233-1.4.538-.849.771-.948,1.86-1.614,2.367a19.565,19.565,0,0,1-3.013,1.291c-2.251,1-7.2,2.622-7.958,4.84a4.63,4.63,0,0,0-.226,1.087,3.267,3.267,0,0,0-1.827,2.921v.077l.013.076,2.958,17.156a3.278,3.278,0,0,0,3.273,3.191h29.7a3.278,3.278,0,0,0,3.273-3.191L61.52,46.989l.013-.076v-.077A3.269,3.269,0,0,0,59.706,43.915Zm-2.04,20.147a2.376,2.376,0,0,1-2.376,2.375h-29.7a2.376,2.376,0,0,1-2.376-2.375L20.246,46.836a2.376,2.376,0,0,1,2.375-2.375H58.26a2.376,2.376,0,0,1,2.376,2.375Z" transform="translate(-19.348 -7.292)" fill="url(#linear-gradient)"/>
      <path id="Path_41907" data-name="Path 41907" d="M49.361,72.506a1.408,1.408,0,1,0,1.409,1.407A1.408,1.408,0,0,0,49.361,72.506Z" transform="translate(-28.269 -26.053)" fill="url(#linear-gradient)"/>
      <path id="Path_41908" data-name="Path 41908" d="M29.429,28.1h.12a2.387,2.387,0,0,0,2.386-2.39V20.939A2.381,2.381,0,0,0,30.608,18.8a12.252,12.252,0,0,1,24.469,0,2.382,2.382,0,0,0-1.327,2.135v4.771a2.4,2.4,0,0,0,.171.888,11.7,11.7,0,0,1-5.7,1.9,1.438,1.438,0,0,0-1.2-.654h-1.9a1.431,1.431,0,1,0,0,2.861h1.9a1.42,1.42,0,0,0,1.263-.773,12.845,12.845,0,0,0,6.566-2.212,2.353,2.353,0,0,0,1.283.379h.12a2.386,2.386,0,0,0,2.386-2.39V20.938a2.379,2.379,0,0,0-1.36-2.15,14.453,14.453,0,0,0-28.875,0,2.381,2.381,0,0,0-1.363,2.15v4.771A2.387,2.387,0,0,0,29.429,28.1Z" transform="translate(-21.748 -5)" fill="url(#linear-gradient)"/>
    </g>
  </g>
</svg>
