<svg id="noun_Document_1212460" xmlns="http://www.w3.org/2000/svg" width="18.293" height="21.708" viewBox="0 0 18.293 21.708">
  <path id="Path_60" data-name="Path 60" d="M28.232,7.939h-.366A2.57,2.57,0,0,0,25.305,5.5H17.476a.611.611,0,0,0-.439.2l-4.366,4.439a.571.571,0,0,0-.171.415V21.72a2.57,2.57,0,0,0,2.439,2.561v.366A2.561,2.561,0,0,0,17.5,27.208H28.232a2.561,2.561,0,0,0,2.561-2.561V10.5A2.561,2.561,0,0,0,28.232,7.939Zm-4.025,9.147a.6.6,0,0,1-.61.61H16.768a.61.61,0,1,1,0-1.22H23.6A.6.6,0,0,1,24.208,17.086Zm0,2.927a.6.6,0,0,1-.61.61H16.768a.61.61,0,1,1,0-1.22H23.6A.6.6,0,0,1,24.208,20.013Zm-5-6.464a.61.61,0,1,1,0,1.22H16.768a.61.61,0,1,1,0-1.22Zm-4.829-3.415L16.89,7.573v2.2a.375.375,0,0,1-.366.366Zm15.2,14.513a1.353,1.353,0,0,1-1.342,1.342H17.5a1.353,1.353,0,0,1-1.342-1.342v-.366h9.147a2.561,2.561,0,0,0,2.561-2.561V9.159h.366A1.353,1.353,0,0,1,29.574,10.5Z" transform="translate(-12.5 -5.5)" fill="#fff"/>
</svg>
