<svg id="noun_Planning_2520360" xmlns="http://www.w3.org/2000/svg" width="18.678" height="18.678" viewBox="0 0 18.678 18.678">
  <g id="Group_13287" data-name="Group 13287">
    <path id="Path_41923" data-name="Path 41923" d="M18.857,6H7.557A1.556,1.556,0,0,0,6,7.557V23.122a1.556,1.556,0,0,0,1.557,1.557h11.3a1.556,1.556,0,0,0,1.557-1.557V7.557A1.556,1.556,0,0,0,18.857,6ZM9.213,13.741a1.36,1.36,0,1,1,1.36,1.36A1.361,1.361,0,0,1,9.213,13.741Zm6.86,7.577a.389.389,0,1,1-.55.55l-.553-.553-.553.553a.389.389,0,0,1-.55-.55l.553-.553-.553-.553a.389.389,0,0,1,.55-.55l.553.553.553-.553a.389.389,0,1,1,.55.55l-.553.553Zm.232-5.985L15.02,16.669a.389.389,0,0,1-.561-.54l.67-.7h-.116c-2.235,0-4.053,2.56-4.053,5.707a.389.389,0,1,1-.778,0c0-3.576,2.167-6.486,4.832-6.486h.061l-.659-.632a.389.389,0,1,1,.539-.562l1.341,1.287a.376.376,0,0,1,.011.585Zm1.385-4.273H8.724a.389.389,0,1,1,0-.778h8.968a.389.389,0,1,1,0,.778Zm0-1.946H8.724a.389.389,0,1,1,0-.778h8.968a.389.389,0,1,1,0,.778Z" transform="translate(-6 -6)" fill="#fff"/>
    <path id="Path_41924" data-name="Path 41924" d="M47.551,17.96H46.193A1.045,1.045,0,0,0,45.15,19v.684h3.444V19A1.043,1.043,0,0,0,47.551,17.96Z" transform="translate(-29.915 -13.306)" fill="#fff"/>
    <path id="Path_41925" data-name="Path 41925" d="M46.73,48.983a.391.391,0,0,0,.716,0l1.23-2.813H45.5Z" transform="translate(-30.129 -30.538)" fill="#fff"/>
    <rect id="Rectangle_2966" data-name="Rectangle 2966" width="3.444" height="7.693" transform="translate(15.235 7.16)" fill="#fff"/>
  </g>
</svg>
