<svg xmlns="http://www.w3.org/2000/svg" width="58.85" height="33.403" viewBox="0 0 58.85 33.403">
  <g id="Group_13292" data-name="Group 13292" transform="translate(-8.121 -2.5)">
    <path id="Path_41930" data-name="Path 41930" d="M73.277,3.3H36.288A1.591,1.591,0,0,0,34.67,4.917V16.872l1.266-.633a6.5,6.5,0,0,1,1.9-.563V6.535H71.66V32.906H37.835V27L34.6,28.616v5.837a1.591,1.591,0,0,0,1.617,1.617H73.207a1.591,1.591,0,0,0,1.617-1.617V4.917A1.5,1.5,0,0,0,73.277,3.3Z" transform="translate(-7.858 -0.237)" fill="#fff"/>
    <path id="Path_41931" data-name="Path 41931" d="M67.35,14.8a21.961,21.961,0,0,0-8.72,1.758A22.983,22.983,0,0,0,49.91,14.8a.555.555,0,0,0-.563.563v1.125h-.985a.555.555,0,0,0-.563.563V29.427a.555.555,0,0,0,.563.563,25.273,25.273,0,0,1,9.915,2.039c.07,0,.141.07.211.07a.258.258,0,0,0,.211-.07,25.273,25.273,0,0,1,9.915-2.039.555.555,0,0,0,.563-.563V16.98a.555.555,0,0,0-.563-.563h-.984V15.292C67.912,15.081,67.7,14.8,67.35,14.8ZM58.137,29.357a22.177,22.177,0,0,0-7.595-1.547V15.925a21.938,21.938,0,0,1,7.595,1.617Zm8.72-1.547a21.848,21.848,0,0,0-7.595,1.547V17.472a21.938,21.938,0,0,1,7.595-1.617Z" transform="translate(-11.776 -3.65)" fill="#fff"/>
    <path id="Path_41932" data-name="Path 41932" d="M53.992,20.225A23.542,23.542,0,0,1,57.86,21H58a.529.529,0,0,0,.492-.352.616.616,0,0,0-.352-.7,20.015,20.015,0,0,0-4.079-.844.543.543,0,0,0-.563.492.517.517,0,0,0,.141.422A.387.387,0,0,0,53.992,20.225Z" transform="translate(-13.468 -4.927)" fill="#fff"/>
    <path id="Path_41933" data-name="Path 41933" d="M53.992,23.625a23.542,23.542,0,0,1,3.868.774H58a.529.529,0,0,0,.492-.352.616.616,0,0,0-.352-.7,20.015,20.015,0,0,0-4.079-.844.543.543,0,0,0-.563.492.517.517,0,0,0,.141.422A1.537,1.537,0,0,0,53.992,23.625Z" transform="translate(-13.468 -5.936)" fill="#fff"/>
    <path id="Path_41934" data-name="Path 41934" d="M53.992,26.925a23.542,23.542,0,0,1,3.868.774H58a.529.529,0,0,0,.492-.352.616.616,0,0,0-.352-.7,20.015,20.015,0,0,0-4.079-.844.543.543,0,0,0-.563.492.517.517,0,0,0,.141.422A.387.387,0,0,0,53.992,26.925Z" transform="translate(-13.468 -6.915)" fill="#fff"/>
    <path id="Path_41935" data-name="Path 41935" d="M53.992,30.225A23.542,23.542,0,0,1,57.86,31H58a.529.529,0,0,0,.492-.352.616.616,0,0,0-.352-.7,20.015,20.015,0,0,0-4.079-.844.543.543,0,0,0-.563.492.517.517,0,0,0,.141.422A.387.387,0,0,0,53.992,30.225Z" transform="translate(-13.468 -7.894)" fill="#fff"/>
    <path id="Path_41936" data-name="Path 41936" d="M66.385,21.1h.141a25.106,25.106,0,0,1,3.868-.774.387.387,0,0,0,.352-.211,1,1,0,0,0,.141-.422.543.543,0,0,0-.563-.492,21.042,21.042,0,0,0-4.079.844.548.548,0,0,0-.352.7A.529.529,0,0,0,66.385,21.1Z" transform="translate(-17.14 -4.956)" fill="#fff"/>
    <path id="Path_41937" data-name="Path 41937" d="M66.385,24.4h.141a25.105,25.105,0,0,1,3.868-.774.387.387,0,0,0,.352-.211,1,1,0,0,0,.141-.422.543.543,0,0,0-.563-.492h0a20.015,20.015,0,0,0-4.079.844.548.548,0,0,0-.352.7A.529.529,0,0,0,66.385,24.4Z" transform="translate(-17.14 -5.936)" fill="#fff"/>
    <path id="Path_41938" data-name="Path 41938" d="M66.385,27.7h.141a25.106,25.106,0,0,1,3.868-.774.387.387,0,0,0,.352-.211,1,1,0,0,0,.141-.422.543.543,0,0,0-.563-.492h0a20.015,20.015,0,0,0-4.079.844.548.548,0,0,0-.352.7A.529.529,0,0,0,66.385,27.7Z" transform="translate(-17.14 -6.915)" fill="#fff"/>
    <path id="Path_41939" data-name="Path 41939" d="M66.385,31.1h.141a25.106,25.106,0,0,1,3.868-.774.387.387,0,0,0,.352-.211,1,1,0,0,0,.141-.422.543.543,0,0,0-.563-.492h0a20.015,20.015,0,0,0-4.079.844.548.548,0,0,0-.352.7A.658.658,0,0,0,66.385,31.1Z" transform="translate(-17.14 -7.924)" fill="#fff"/>
    <path id="Path_41940" data-name="Path 41940" d="M32.86,24.863a2.691,2.691,0,0,0-3.586-1.2L24.28,26.2l-3.657-2.532a15.235,15.235,0,0,0-3.8-2.25c-1.758-.633-6.329-.985-7.595,1.969C7.9,26.55,8.106,34.708,8.176,40.474a.872.872,0,0,0,.844.914h9.634a.8.8,0,0,0,.844-.774c.07-.281.563-6.892.563-9.775v-.985l2.532,1.688a2.848,2.848,0,0,0,1.477.492,2.311,2.311,0,0,0,1.2-.281l6.4-3.235A2.711,2.711,0,0,0,32.86,24.863Z" transform="translate(0 -5.485)" fill="#fff"/>
    <circle id="Ellipse_20" data-name="Ellipse 20" cx="5.837" cy="5.837" r="5.837" transform="translate(8.95 2.5)" fill="#fff"/>
  </g>
</svg>
