<svg id="Group_48" data-name="Group 48" xmlns="http://www.w3.org/2000/svg" width="23.667" height="19.376" viewBox="0 0 23.667 19.376">
  <path id="Path_64" data-name="Path 64" d="M53.774,11.2H41.1a.8.8,0,0,0-.8.8V16.29l.724.774h.9V12.8H52.951V24.175H41.922v-2H40.3v2.795a.8.8,0,0,0,.8.8H53.749a.8.8,0,0,0,.8-.8V12A.753.753,0,0,0,53.774,11.2Z" transform="translate(-30.882 -11.2)" fill="#fff"/>
  <path id="Path_65" data-name="Path 65" d="M14.77,34.944A.948.948,0,0,0,13.822,34H11.975l-1.5-1.647a2.284,2.284,0,0,0-1.7-.749h-1.7a2.309,2.309,0,0,0-1.9,1L2.743,36.166a1.029,1.029,0,0,0-.05,1.1.932.932,0,0,0,.8.424.958.958,0,0,0,.774-.4l1.273-1.846V44.9a.968.968,0,0,0,.8.973.943.943,0,0,0,1.1-.923V39.086h.923V44.9a.968.968,0,0,0,.8.973.943.943,0,0,0,1.1-.923V34.844l.649.724a.928.928,0,0,0,.7.324h2.271A.939.939,0,0,0,14.77,34.944Z" transform="translate(-2.558 -26.51)" fill="#fff"/>
  <circle id="Ellipse_2" data-name="Ellipse 2" cx="2.096" cy="2.096" r="2.096" transform="translate(3.204 0.349)" fill="#fff"/>
  <path id="Path_66" data-name="Path 66" d="M56.5,26.622h4.99a.788.788,0,0,0,.8-.8.81.81,0,0,0-.8-.823H56.5a.788.788,0,0,0-.8.8A.81.81,0,0,0,56.5,26.622Z" transform="translate(-42.44 -21.557)" fill="#fff"/>
  <path id="Path_67" data-name="Path 67" d="M56.5,38.9h4.99a.8.8,0,0,0,0-1.6H56.5a.788.788,0,0,0-.8.8A.8.8,0,0,0,56.5,38.9Z" transform="translate(-42.44 -30.787)" fill="#fff"/>
  <path id="Path_68" data-name="Path 68" d="M56.5,51h4.99a.8.8,0,0,0,0-1.6H56.5a.8.8,0,0,0,0,1.6Z" transform="translate(-42.44 -39.868)" fill="#fff"/>
</svg>
